<svg width="1398" height="722" viewBox="0 0 1398 722" fill="none" xmlns="http://www.w3.org/2000/svg">
<path d="M1382.98 130.028C1374.35 114.705 1362.23 101.631 1347.6 91.863C1332.98 82.0953 1316.26 75.9088 1298.8 73.8046C1281.34 71.7003 1263.63 73.7374 1247.1 79.751C1230.58 85.7645 1215.7 95.5853 1203.67 108.418C1191.65 121.251 1182.81 136.736 1177.88 153.618C1172.96 170.5 1172.07 188.306 1175.31 205.593C1178.54 222.88 1185.8 239.162 1196.5 253.122C1207.19 267.081 1221.03 278.326 1236.88 285.945L1257.76 242.508C1248.73 238.168 1240.85 231.762 1234.75 223.809C1228.66 215.856 1224.52 206.58 1222.68 196.732C1220.84 186.883 1221.34 176.74 1224.15 167.122C1226.96 157.504 1231.99 148.683 1238.84 141.372C1245.69 134.061 1254.17 128.466 1263.58 125.04C1273 121.614 1283.09 120.453 1293.03 121.652C1302.98 122.851 1312.51 126.375 1320.84 131.94C1329.17 137.505 1336.07 144.953 1340.99 153.682L1382.98 130.028Z" fill="#6070FF"/>
<path d="M245.633 705.783C247.955 703.017 249.594 699.743 250.415 696.226C251.237 692.709 251.219 689.048 250.362 685.539C249.506 682.031 247.835 678.773 245.486 676.031C243.136 673.288 240.174 671.137 236.838 669.752C233.503 668.367 229.888 667.787 226.287 668.059C222.686 668.331 219.199 669.447 216.109 671.317C213.019 673.187 210.414 675.758 208.502 678.823C206.591 681.887 205.429 685.358 205.109 688.956L214.967 689.833C215.149 687.783 215.811 685.805 216.9 684.06C217.989 682.314 219.473 680.849 221.234 679.784C222.994 678.718 224.98 678.082 227.032 677.928C229.084 677.773 231.143 678.103 233.043 678.892C234.943 679.681 236.631 680.907 237.969 682.469C239.308 684.032 240.26 685.887 240.748 687.886C241.235 689.885 241.246 691.971 240.778 693.974C240.31 695.978 239.376 697.843 238.053 699.419L245.633 705.783Z" fill="#EBEBFF"/>
<rect x="1111.4" y="102" width="204" height="47" transform="rotate(-30 1111.4 102)" fill="#EBEBFF"/>
<rect x="696.84" y="631" width="161.407" height="28.875" transform="rotate(23.34 696.84 631)" fill="#EBEBFF"/>
<rect width="56.0124" height="10.0203" transform="matrix(0.977401 -0.211395 -0.211395 -0.977401 658.652 142.572)" fill="#6070FF"/>
<rect y="99.9233" width="108.669" height="19.4403" transform="rotate(-46.1415 0 99.9233)" fill="#EBEBFF"/>
<circle cx="827.898" cy="662.5" r="23.5" fill="#6070FF"/>
<circle cx="684.898" cy="149.5" r="11.5" fill="#EBEBFF"/>
<circle cx="1176.9" cy="562.5" r="37" fill="white" stroke="#EBEBFF"/>
<circle r="19" transform="matrix(1 0 0 -1 949.898 53.5)" fill="white" stroke="#EBEBFF"/>
<circle cx="351.898" cy="53.5" r="7" fill="white" stroke="#EBEBFF"/>
<circle r="11" transform="matrix(1 0 0 -1 49.8984 404.5)" fill="white" stroke="#EBEBFF"/>
<path d="M46.3826 73.074C42.192 82.8891 42.0721 93.9669 46.0492 103.87C50.0263 113.774 57.7747 121.692 67.5898 125.882C77.4049 130.073 88.4827 130.193 98.3862 126.216C108.29 122.239 116.208 114.49 120.398 104.675L46.3826 73.074Z" fill="#6070FF"/>
<path d="M220.553 650C220.218 654.881 221.837 659.695 225.052 663.383C228.267 667.071 232.815 669.331 237.697 669.666C242.578 670 247.392 668.381 251.08 665.166C254.768 661.951 257.028 657.403 257.362 652.521L220.553 650Z" fill="#6070FF"/>
</svg>
